<svg width="303" height="303" xmlns="http://www.w3.org/2000/svg" xmlns:xlink="http://www.w3.org/1999/xlink" xml:space="preserve" overflow="hidden"><defs><clipPath id="clip0"><rect x="3982" y="36" width="303" height="303"/></clipPath><radialGradient cx="411480" cy="109450" r="425788" gradientUnits="userSpaceOnUse" spreadMethod="pad" id="fill1" gradientTransform="matrix(0.000360892 0 0 0.000360892 3984 257)"><stop offset="0" stop-color="#FFFFFF" stop-opacity="1"/><stop offset="0.22" stop-color="#FFFFFF" stop-opacity="1"/><stop offset="0.6" stop-color="#D9D9D9" stop-opacity="1"/><stop offset="1" stop-color="#D9D9D9" stop-opacity="1"/></radialGradient><clipPath id="clip2"><rect x="4010" y="38" width="245" height="243"/></clipPath><clipPath id="clip3"><rect x="4010" y="38" width="245" height="243"/></clipPath><clipPath id="clip4"><rect x="4010" y="38" width="245" height="243"/></clipPath></defs><g clip-path="url(#clip0)" transform="translate(-3982 -36)"><path d="M3984 296.5C3984 274.685 4050.49 257 4132.5 257 4214.51 257 4281 274.685 4281 296.5 4281 318.315 4214.51 336 4132.5 336 4050.49 336 3984 318.315 3984 296.5Z" fill="url(#fill1)" fill-rule="evenodd"/><g clip-path="url(#clip2)"><g clip-path="url(#clip3)"><g clip-path="url(#clip4)"><path d="M140.054 99.1489 142.205 92.7702 137.345 87.9102 130.967 90.0618C129.308 89.1275 127.54 88.4045 125.702 87.9102L122.715 81.9618 115.931 81.9618 112.919 87.9355C111.074 88.4344 109.298 89.1568 107.629 90.0871L101.25 87.9355 96.3899 92.7955 98.4149 99.1742C97.4436 100.823 96.6946 102.594 96.1874 104.439L90.2136 107.426 90.2136 114.109 96.1874 117.121C96.6797 118.959 97.4026 120.729 98.3389 122.386L96.1874 128.765 101.25 133.625 107.629 131.448C109.286 132.391 111.054 133.122 112.894 133.625L115.88 139.573 122.664 139.573 125.676 133.726C127.483 133.234 129.225 132.529 130.865 131.625L137.219 133.802 142.079 128.916 139.927 122.563C140.894 120.893 141.667 119.118 142.231 117.273L148.179 114.286 148.179 107.426 142.205 104.414C141.722 102.572 140.999 100.802 140.054 99.1489ZM119.298 120.994C113.706 120.994 109.173 116.46 109.173 110.869 109.173 105.277 113.706 100.744 119.298 100.744 124.856 100.825 129.341 105.311 129.423 110.869 129.423 116.46 124.889 120.994 119.298 120.994Z" fill="#FFC000" fill-rule="nonzero" fill-opacity="1" transform="matrix(1.00412 0 0 1 4011 38.0002)"/><path d="M141.041 189.312 97.4783 189.312C93.4453 189.55 90.3683 193.012 90.6057 197.045 90.8239 200.746 93.7769 203.699 97.4783 203.917L141.041 203.917C145.074 203.68 148.151 200.218 147.914 196.185 147.695 192.483 144.743 189.53 141.041 189.312Z" fill="#FFC000" fill-rule="nonzero" fill-opacity="1" transform="matrix(1.00412 0 0 1 4011 38.0002)"/><path d="M119.272 228.648C127.537 228.634 134.408 222.281 135.067 214.042L103.452 214.042C104.124 222.285 111.003 228.635 119.272 228.648Z" fill="#FFC000" fill-rule="nonzero" fill-opacity="1" transform="matrix(1.00412 0 0 1 4011 38.0002)"/><path d="M182.478 112.565 182.478 110.388C181.833 75.8372 153.752 48.1048 119.196 47.8912 84.6406 48.1048 56.5602 75.8372 55.9152 110.388L55.9152 112.565C56.1466 120.058 57.6355 127.46 60.3196 134.46 62.8815 141.065 66.6017 147.159 71.3052 152.457 77.1018 158.76 83.4299 171.036 86.113 176.504 86.9336 178.155 88.6225 179.196 90.4668 179.187L147.926 179.187C149.77 179.196 151.459 178.155 152.28 176.504 154.963 171.036 161.291 158.785 167.088 152.457 171.791 147.159 175.511 141.065 178.073 134.46 180.757 127.46 182.246 120.058 182.478 112.565ZM167.898 112.337C167.718 118.153 166.58 123.9 164.531 129.347 162.609 134.251 159.832 138.777 156.33 142.712 150.711 149.4 145.894 156.723 141.978 164.531L96.4152 164.531C92.5434 156.703 87.769 149.354 82.1896 142.636 78.6871 138.701 75.9103 134.176 73.9883 129.271 71.896 123.832 70.7157 118.084 70.4952 112.261L70.4952 110.438C70.9486 83.8602 92.5388 62.5058 119.12 62.3446 145.702 62.5058 167.292 83.8602 167.746 110.438Z" fill="#FFC000" fill-rule="nonzero" fill-opacity="1" transform="matrix(1.00412 0 0 1 4011 38.0002)"/><path d="M119.753 37.9687C122.549 37.9687 124.816 35.7022 124.816 32.9062L124.816 15.1875C124.816 12.3915 122.549 10.125 119.753 10.125 116.957 10.125 114.691 12.3915 114.691 15.1875L114.691 32.9062C114.691 35.7022 116.957 37.9687 119.753 37.9687Z" fill="#FFC000" fill-rule="nonzero" fill-opacity="1" transform="matrix(1.00412 0 0 1 4011 38.0002)"/><path d="M59.6868 60.2184C61.6614 62.1811 64.8503 62.1811 66.8249 60.2184 68.7876 58.2437 68.7876 55.0549 66.8249 53.0802L54.2952 40.4999C52.2201 38.6263 49.0189 38.7896 47.145 40.8647 45.4004 42.7971 45.4058 45.7373 47.1571 47.6634Z" fill="#FFC000" fill-rule="nonzero" fill-opacity="1" transform="matrix(1.00412 0 0 1 4011 38.0002)"/><path d="M176.327 62.6737C177.676 62.6747 178.97 62.137 179.921 61.1802L192.425 48.524C194.056 46.253 193.538 43.0899 191.267 41.459 189.475 40.1721 187.056 40.1937 185.287 41.5124L172.631 54.1687C170.668 56.1433 170.668 59.3322 172.631 61.3068 173.628 62.2428 174.961 62.7359 176.327 62.6737Z" fill="#FFC000" fill-rule="nonzero" fill-opacity="1" transform="matrix(1.00412 0 0 1 4011 38.0002)"/><path d="M41.1328 105.047 23.414 105.047C20.6181 105.047 18.3515 107.313 18.3515 110.109 18.3515 112.905 20.6181 115.172 23.414 115.172L41.1328 115.172C43.9288 115.172 46.1953 112.905 46.1953 110.109 46.1953 107.313 43.9288 105.047 41.1328 105.047Z" fill="#FFC000" fill-rule="nonzero" fill-opacity="1" transform="matrix(1.00412 0 0 1 4011 38.0002)"/><path d="M59.6868 159.823 47.1571 172.479C45.0334 174.298 44.7861 177.494 46.6048 179.617 48.4235 181.741 51.6195 181.988 53.7429 180.17 53.9411 180 54.1256 179.815 54.2952 179.617L66.8249 166.961C68.6436 164.837 68.3963 161.642 66.2726 159.823 64.3774 158.2 61.5822 158.2 59.6868 159.823Z" fill="#FFC000" fill-rule="nonzero" fill-opacity="1" transform="matrix(1.00412 0 0 1 4011 38.0002)"/><path d="M179.921 158.861C178.047 156.786 174.846 156.623 172.771 158.496 170.696 160.37 170.532 163.571 172.406 165.647 172.517 165.77 172.635 165.888 172.758 165.999L185.414 178.655C187.203 180.804 190.396 181.094 192.544 179.305 194.692 177.516 194.983 174.323 193.193 172.175 192.951 171.884 192.676 171.621 192.375 171.391Z" fill="#FFC000" fill-rule="nonzero" fill-opacity="1" transform="matrix(1.00412 0 0 1 4011 38.0002)"/><path d="M215.156 104.87 197.437 104.87C194.641 104.87 192.375 107.136 192.375 109.932 192.375 112.728 194.641 114.995 197.437 114.995L215.156 114.995C217.952 114.995 220.218 112.728 220.218 109.932 220.218 107.136 217.952 104.87 215.156 104.87Z" fill="#FFC000" fill-rule="nonzero" fill-opacity="1" transform="matrix(1.00412 0 0 1 4011 38.0002)"/></g></g></g></g></svg>