<svg width="74" height="73" xmlns="http://www.w3.org/2000/svg" xmlns:xlink="http://www.w3.org/1999/xlink" xml:space="preserve" overflow="hidden"><defs><clipPath id="clip0"><rect x="438" y="97" width="74" height="73"/></clipPath><clipPath id="clip1"><rect x="439" y="98" width="72" height="72"/></clipPath><clipPath id="clip2"><rect x="439" y="98" width="72" height="72"/></clipPath><clipPath id="clip3"><rect x="439" y="98" width="72" height="72"/></clipPath></defs><g clip-path="url(#clip0)" transform="translate(-438 -97)"><g clip-path="url(#clip1)"><g clip-path="url(#clip2)"><g clip-path="url(#clip3)"><path d="M487 120.5C487 127.127 481.627 132.5 475 132.5 468.373 132.5 463 127.127 463 120.5 463 113.873 468.373 108.5 475 108.5 481.627 108.5 487 113.873 487 120.5Z" fill="#9DC3E6" fill-rule="nonzero" fill-opacity="1"/><path d="M499 159.5 499 147.5C499 145.7 498.1 143.9 496.6 142.7 493.3 140 489.1 138.2 484.9 137 481.9 136.1 478.6 135.5 475 135.5 471.7 135.5 468.4 136.1 465.1 137 460.9 138.2 456.7 140.3 453.4 142.7 451.9 143.9 451 145.7 451 147.5L451 159.5 499 159.5Z" fill="#9DC3E6" fill-rule="nonzero" fill-opacity="1"/></g></g></g></g></svg>