<svg width="72" height="73" xmlns="http://www.w3.org/2000/svg" xmlns:xlink="http://www.w3.org/1999/xlink" xml:space="preserve" overflow="hidden"><defs><clipPath id="clip0"><rect x="748" y="97" width="72" height="73"/></clipPath><clipPath id="clip1"><rect x="748" y="98" width="72" height="72"/></clipPath><clipPath id="clip2"><rect x="748" y="98" width="72" height="72"/></clipPath><clipPath id="clip3"><rect x="748" y="98" width="72" height="72"/></clipPath></defs><g clip-path="url(#clip0)" transform="translate(-748 -97)"><g clip-path="url(#clip1)"><g clip-path="url(#clip2)"><g clip-path="url(#clip3)"><path d="M755.5 123.5 755.5 107.75 760.525 112.775C765.55 108.275 772.225 105.5 779.5 105.5 795.25 105.5 808 118.25 808 134 808 149.75 795.25 162.5 779.5 162.5 771.625 162.5 764.5 159.275 759.325 154.175L765.7 147.8C769.225 151.325 774.1 153.5 779.5 153.5 790.225 153.5 799 144.725 799 134 799 123.275 790.225 114.5 779.5 114.5 774.7 114.5 770.275 116.225 766.9 119.15L771.25 123.5 755.5 123.5Z" fill="#9DC3E6" fill-rule="nonzero" fill-opacity="1"/></g></g></g></g></svg>