<svg width="74" height="73" xmlns="http://www.w3.org/2000/svg" xmlns:xlink="http://www.w3.org/1999/xlink" xml:space="preserve" overflow="hidden"><defs><clipPath id="clip0"><rect x="238" y="184" width="74" height="73"/></clipPath><clipPath id="clip1"><rect x="239" y="185" width="72" height="72"/></clipPath><clipPath id="clip2"><rect x="239" y="185" width="72" height="72"/></clipPath><clipPath id="clip3"><rect x="239" y="185" width="72" height="72"/></clipPath></defs><g clip-path="url(#clip0)" transform="translate(-238 -184)"><g clip-path="url(#clip1)"><g clip-path="url(#clip2)"><g clip-path="url(#clip3)"><path d="M274.99 192.5C259.258 192.5 246.505 205.253 246.505 220.984 246.505 236.716 259.258 249.469 274.99 249.469 290.721 249.469 303.474 236.716 303.474 220.984 303.474 220.984 303.474 220.983 303.474 220.982 303.479 205.257 290.736 192.505 275.011 192.5 275.004 192.5 274.997 192.5 274.99 192.5ZM288.204 223.52 261.775 223.52 261.775 218.45 288.204 218.45Z" fill="#FF7E79" fill-rule="nonzero" fill-opacity="1"/></g></g></g></g></svg>