<svg width="72" height="73" xmlns="http://www.w3.org/2000/svg" xmlns:xlink="http://www.w3.org/1999/xlink" xml:space="preserve" overflow="hidden"><defs><clipPath id="clip0"><rect x="328" y="184" width="72" height="73"/></clipPath><clipPath id="clip1"><rect x="328" y="185" width="72" height="72"/></clipPath><clipPath id="clip2"><rect x="328" y="185" width="72" height="72"/></clipPath><clipPath id="clip3"><rect x="328" y="185" width="72" height="72"/></clipPath></defs><g clip-path="url(#clip0)" transform="translate(-328 -184)"><g clip-path="url(#clip1)"><g clip-path="url(#clip2)"><g clip-path="url(#clip3)"><path d="M346.75 238.325C348.25 239.825 348.25 242.15 346.75 243.65L340.375 245.75 339.25 244.625 341.35 238.25C342.925 236.825 345.25 236.825 346.75 238.325ZM376.225 199.175 338.725 236.75 334 251 348.325 246.275 385.825 208.775" fill="#FFD966" fill-rule="nonzero" fill-opacity="1"/><path d="M393.175 197.15 387.85 191.825C386.65 190.625 384.775 190.625 383.575 191.825L378.325 197.075 387.85 206.6 393.1 201.35C394.375 200.225 394.375 198.35 393.175 197.15Z" fill="#FFD966" fill-rule="nonzero" fill-opacity="1"/></g></g></g></g></svg>