<svg width="73" height="73" xmlns="http://www.w3.org/2000/svg" xmlns:xlink="http://www.w3.org/1999/xlink" xml:space="preserve" overflow="hidden"><defs><clipPath id="clip0"><rect x="541" y="97" width="73" height="73"/></clipPath><clipPath id="clip1"><rect x="542" y="98" width="72" height="72"/></clipPath><clipPath id="clip2"><rect x="542" y="98" width="72" height="72"/></clipPath><clipPath id="clip3"><rect x="542" y="98" width="72" height="72"/></clipPath></defs><g clip-path="url(#clip0)" transform="translate(-541 -97)"><g clip-path="url(#clip1)"><g clip-path="url(#clip2)"><g clip-path="url(#clip3)"><path d="M606.125 154.7 596.75 145.325C595.475 144.05 593.75 143.6 592.1 143.9L588.8 140.6C591.725 136.85 593.45 132.05 593.45 126.95 593.45 114.575 583.325 104.45 570.95 104.45 558.575 104.45 548.45 114.575 548.45 126.95 548.45 139.325 558.575 149.45 570.95 149.45 576.05 149.45 580.775 147.725 584.6 144.8L587.9 148.1C587.6 149.75 588.05 151.475 589.325 152.75L598.7 162.125C599.75 163.175 601.1 163.7 602.45 163.7 603.8 163.7 605.15 163.175 606.2 162.125 608.15 160.025 608.15 156.725 606.125 154.7ZM570.875 144.875C560.975 144.875 552.875 136.775 552.875 126.875 552.875 116.975 560.975 108.875 570.875 108.875 580.775 108.875 588.875 116.975 588.875 126.875 588.875 136.775 580.775 144.875 570.875 144.875Z" fill="#9DC3E6" fill-rule="nonzero" fill-opacity="1"/></g></g></g></g></svg>